<svg width="1920" height="10984" viewBox="0 0 1920 10984" fill="none" xmlns="http://www.w3.org/2000/svg">
<path opacity="0.2" fill-rule="evenodd" clip-rule="evenodd" d="M1115.13 201.073C1426.22 63.0162 1764.45 8.42086 1980.96 0.500488L1981.04 2.49915C1764.72 10.4121 1426.75 64.9668 1115.94 202.901C805.128 340.839 521.632 562.086 413.954 903.301C306.286 1244.48 429.812 1599.41 628.176 1904.59C826.519 2209.75 1099.57 2464.98 1290.57 2606.68C1702.36 2878.45 2277.77 3984.29 1290.92 6234.4C982.542 6937.52 761.654 7478.23 620.452 7916.17C479.25 8354.12 417.755 8689.22 428.124 8981.15C448.787 9562.89 754.812 9973.4 1285.12 10684.8L1290.79 10692.4L1290.8 10692.4L2085.35 11722.8L2083.63 11723C1950.51 11740.6 1757.14 11816.9 1609.86 11988.3C1462.6 12159.7 1361.32 12426.3 1412.49 12824.9C1463.75 13224.1 1214.81 13654.9 883.15 14031.1C551.442 14407.3 136.767 14729.1 -143.957 14910.3L-145.042 14908.7C135.567 14727.4 550.091 14405.8 881.65 14029.8C1213.26 13653.7 1461.65 13223.5 1410.51 12825.1C1359.28 12426.1 1460.67 12158.9 1608.34 11987C1755.36 11815.9 1948.17 11739.4 2081.65 11721.2L1289.21 10693.6L1289.2 10693.6L1289.2 10693.6L1283.19 10685.5C753.187 9974.57 446.811 9563.59 426.126 8981.22C415.745 8688.96 477.313 8353.6 618.548 7915.56C759.784 7477.52 980.708 6936.73 1289.08 6233.6C2275.82 3983.75 1699.99 2879.26 1289.45 2608.33L1289.43 2608.32L1289.4 2608.3C1098.25 2466.5 825.007 2211.09 626.499 1905.68C428.004 1600.29 304.114 1244.72 412.046 902.699C519.968 560.713 804.055 339.127 1115.13 201.073Z" fill="#ABABAB"/>
<path opacity="0.2" fill-rule="evenodd" clip-rule="evenodd" d="M-183.132 291.573C-494.216 153.516 -832.445 98.9209 -1048.96 91.0005L-1049.04 92.9992C-832.721 100.912 -494.751 155.467 -183.943 293.401C126.872 431.339 410.368 652.586 518.046 993.801C625.714 1334.98 502.188 1689.91 303.824 1995.09C105.481 2300.25 -167.565 2555.48 -358.574 2697.18C-770.362 2968.95 -1345.77 4074.79 -358.916 6324.9C-50.5424 7028.02 170.346 7568.73 311.548 8006.67C452.751 8444.62 514.245 8779.72 503.876 9071.65C483.213 9653.39 177.188 10063.9 -353.119 10775.3L-358.802 10782.9L-357.198 10784.1L-351.194 10776C178.813 10065.1 485.189 9654.09 505.874 9071.72C516.255 8779.46 454.687 8444.1 313.452 8006.06C172.216 7568.02 -48.7075 7027.23 -357.084 6324.1C-1343.82 4074.25 -767.992 2969.76 -357.449 2698.83L-357.426 2698.82L-357.404 2698.8C-166.247 2557 106.993 2301.59 305.501 1996.18C503.996 1690.79 627.886 1335.22 519.954 993.199C412.032 651.213 127.945 429.627 -183.132 291.573Z" fill="#ABABAB"/>
</svg>
